# Blender 4.1.1
# www.blender.org
o Cube
v -0.188932 -0.131352 0.670229
v -0.663082 -0.131352 -0.212660
v 0.188932 0.131352 -0.670229
v 0.663082 0.131352 0.212660
v 1.434628 5.251946 0.449880
v 1.295670 5.251946 0.642681
v 1.236174 5.478006 0.599800
v 1.375132 5.478006 0.406999
v -3.550911 9.977695 -0.713573
v -3.372052 9.977695 -0.870069
v -3.234899 10.092146 -0.713317
v -3.413758 10.092146 -0.556821
v -4.167296 9.648331 1.658302
v -4.372479 9.648331 1.538380
v -4.346004 9.880125 1.493082
v -4.140821 9.880125 1.613004
v -0.259988 6.424739 -3.808052
v -0.023493 6.424739 -3.784575
v -0.035947 6.626198 -3.659112
v -0.272443 6.626198 -3.682589
v -1.067948 3.046005 1.430754
v -1.483412 3.046005 1.152565
v -1.345017 3.479742 0.945878
v -0.929553 3.479742 1.224068
v -0.691274 2.657752 0.868209
v -1.106739 2.657752 0.590019
v -0.968344 3.091488 0.383333
v -0.552880 3.091488 0.661523
v -0.879611 2.851878 1.149482
v -1.295075 2.851878 0.871292
v -1.156681 3.285615 0.664606
v -0.741217 3.285615 0.942795
v -0.166320 4.611726 -0.703977
v -0.329809 4.559429 -0.506335
v -0.364774 4.837786 -0.554057
v -0.225816 4.837786 -0.746858
v 0.011563 4.682862 -0.575771
v -0.127395 4.682862 -0.382970
v -0.186891 4.908922 -0.425851
v -0.047933 4.908922 -0.618651
v 0.189446 4.753997 -0.447564
v 0.050488 4.753997 -0.254763
v -0.009008 4.980057 -0.297644
v 0.129950 4.980057 -0.490445
v 0.367329 4.825133 -0.319358
v 0.228371 4.825133 -0.126557
v 0.168875 5.051193 -0.169438
v 0.307833 5.051193 -0.362239
v 0.545213 4.896268 -0.191152
v 0.406254 4.896268 0.001649
v 0.346759 5.122328 -0.041232
v 0.485717 5.122328 -0.234032
v 0.723096 4.967404 -0.062945
v 0.584138 4.967404 0.129855
v 0.524642 5.193464 0.086975
v 0.663600 5.193464 -0.105826
v 0.900979 5.038539 0.065261
v 0.762021 5.038539 0.258062
v 0.702525 5.264599 0.215181
v 0.841483 5.264599 0.022380
v 1.078862 5.109675 0.193467
v 0.939904 5.109675 0.386268
v 0.880408 5.335735 0.343387
v 1.019366 5.335735 0.150586
v 1.256745 5.180810 0.321673
v 1.117787 5.180810 0.514474
v 1.058291 5.406870 0.471594
v 1.197249 5.406870 0.278793
v -3.337701 9.388451 -0.469895
v -3.158842 9.388451 -0.626391
v -3.021689 9.502901 -0.469638
v -3.200548 9.502901 -0.313142
v -3.408771 9.584866 -0.551121
v -3.229912 9.584866 -0.707617
v -3.092759 9.699316 -0.550864
v -3.271618 9.699316 -0.394368
v -3.479841 9.781281 -0.632347
v -3.300982 9.781281 -0.788843
v -3.163829 9.895731 -0.632090
v -3.342688 9.895731 -0.475595
v -3.134073 9.184859 -0.109507
v -3.339256 9.184859 -0.229430
v -3.312781 9.416654 -0.274727
v -3.107598 9.416654 -0.154804
v -3.248876 9.236358 0.086916
v -3.454059 9.236358 -0.033006
v -3.427584 9.468152 -0.078304
v -3.222401 9.468152 0.041619
v -3.363678 9.287854 0.283339
v -3.568861 9.287854 0.163417
v -3.542387 9.519649 0.118120
v -3.337204 9.519649 0.238042
v -3.478481 9.339351 0.479762
v -3.683664 9.339351 0.359840
v -3.657189 9.571145 0.314543
v -3.452006 9.571145 0.434466
v -3.593283 9.390847 0.676185
v -3.798466 9.390847 0.556263
v -3.771991 9.622642 0.510966
v -3.566808 9.622642 0.630889
v -3.708086 9.442344 0.872609
v -3.913269 9.442344 0.752686
v -3.886794 9.674138 0.707390
v -3.681611 9.674138 0.827312
v -3.822888 9.493840 1.069032
v -4.028071 9.493840 0.949110
v -4.001597 9.725635 0.903813
v -3.796414 9.725635 1.023735
v -3.937690 9.545337 1.265455
v -4.142873 9.545337 1.145533
v -4.116399 9.777131 1.100236
v -3.911216 9.777131 1.220159
v -4.052494 9.596833 1.461879
v -4.257677 9.596833 1.341956
v -4.231202 9.828628 1.296659
v -4.026019 9.828628 1.416581
v -0.535753 4.677681 -1.030117
v -0.299257 4.677681 -1.006640
v -0.311712 4.879140 -0.881178
v -0.511110 4.896304 -0.888804
v -0.516056 4.802471 -1.228541
v -0.279560 4.802471 -1.205064
v -0.292015 5.003930 -1.079602
v -0.528511 5.003930 -1.103078
v -0.496358 4.927260 -1.426964
v -0.259862 4.927260 -1.403488
v -0.272317 5.128719 -1.278026
v -0.508813 5.128719 -1.301502
v -0.476661 5.052050 -1.625389
v -0.240165 5.052050 -1.601912
v -0.252620 5.253509 -1.476449
v -0.489116 5.253509 -1.499926
v -0.456963 5.176840 -1.823812
v -0.220467 5.176840 -1.800336
v -0.232922 5.378299 -1.674873
v -0.469418 5.378299 -1.698350
v -0.437266 5.301630 -2.022236
v -0.200770 5.301630 -1.998759
v -0.213225 5.503089 -1.873297
v -0.449721 5.503089 -1.896774
v -0.417568 5.426420 -2.220660
v -0.181072 5.426420 -2.197183
v -0.193527 5.627879 -2.071721
v -0.430023 5.627879 -2.095198
v -0.397871 5.551210 -2.419084
v -0.161375 5.551210 -2.395607
v -0.173830 5.752669 -2.270145
v -0.410326 5.752669 -2.293622
v -0.378173 5.676000 -2.617508
v -0.141677 5.676000 -2.594031
v -0.154132 5.877459 -2.468569
v -0.390628 5.877459 -2.492046
v -0.358476 5.800789 -2.815932
v -0.121980 5.800789 -2.792455
v -0.134435 6.002248 -2.666993
v -0.370931 6.002248 -2.690470
v -0.338778 5.925580 -3.014356
v -0.102282 5.925580 -2.990879
v -0.114737 6.127038 -2.865417
v -0.351233 6.127038 -2.888894
v -0.319081 6.050369 -3.212780
v -0.082585 6.050369 -3.189303
v -0.095040 6.251828 -3.063841
v -0.331536 6.251828 -3.087318
v -0.299383 6.175159 -3.411204
v -0.062888 6.175159 -3.387727
v -0.075342 6.376618 -3.262264
v -0.311838 6.376618 -3.285742
v -0.279686 6.299949 -3.609627
v -0.043190 6.299949 -3.586150
v -0.055645 6.501408 -3.460688
v -0.292141 6.501408 -3.484165
v -0.644605 4.793393 -0.609433
v -0.677171 4.793393 -0.844850
v -0.441446 4.913468 -0.637537
v -0.760483 4.993204 -0.593404
v -0.793049 4.993204 -0.828820
v -0.589889 5.113279 -0.856924
v -0.557324 5.113279 -0.621507
v -0.876361 5.193014 -0.577374
v -0.908927 5.193014 -0.812791
v -0.705767 5.313089 -0.840894
v -0.673202 5.313089 -0.605478
v -0.992239 5.392824 -0.561344
v -1.024805 5.392824 -0.796761
v -0.821645 5.512899 -0.824865
v -0.789080 5.512899 -0.589448
v -1.108117 5.592635 -0.545315
v -1.140683 5.592635 -0.780731
v -0.937523 5.712710 -0.808835
v -0.904958 5.712710 -0.573418
v -1.223995 5.792445 -0.529285
v -1.256561 5.792445 -0.764702
v -1.053401 5.912520 -0.792805
v -1.020836 5.912520 -0.557389
v -1.339873 5.992256 -0.513255
v -1.372439 5.992256 -0.748672
v -1.169279 6.112331 -0.776775
v -1.136714 6.112331 -0.541359
v -1.455751 6.192066 -0.497226
v -1.488317 6.192066 -0.732642
v -1.285158 6.312141 -0.760746
v -1.252592 6.312141 -0.525329
v -1.571629 6.391877 -0.481196
v -1.604195 6.391877 -0.716612
v -1.401036 6.511952 -0.744716
v -1.368470 6.511952 -0.509299
v -1.687507 6.591687 -0.465166
v -1.720073 6.591687 -0.700583
v -1.516913 6.711762 -0.728686
v -1.484348 6.711762 -0.493270
v -1.803385 6.791498 -0.449136
v -1.835951 6.791498 -0.684553
v -1.632792 6.911573 -0.712657
v -1.600226 6.911573 -0.477240
v -1.919263 6.991308 -0.433107
v -1.951829 6.991308 -0.668523
v -1.748670 7.111383 -0.696627
v -1.716104 7.111383 -0.461210
v -2.035141 7.191118 -0.417077
v -2.067707 7.191118 -0.652494
v -1.864548 7.311193 -0.680597
v -1.831982 7.311193 -0.445181
v -2.151019 7.390930 -0.401047
v -2.183585 7.390930 -0.636464
v -1.980425 7.511004 -0.664568
v -1.947860 7.511004 -0.429151
v -2.266897 7.590740 -0.385018
v -2.299463 7.590740 -0.620434
v -2.096304 7.710815 -0.648538
v -2.063738 7.710815 -0.413121
v -2.382776 7.790550 -0.368988
v -2.415341 7.790550 -0.604405
v -2.212182 7.910625 -0.632508
v -2.179616 7.910625 -0.397092
v -2.498653 7.990360 -0.352958
v -2.531219 7.990360 -0.588375
v -2.328060 8.110435 -0.616478
v -2.295494 8.110435 -0.381062
v -2.614532 8.190171 -0.336929
v -2.647097 8.190171 -0.572345
v -2.443938 8.310246 -0.600449
v -2.411372 8.310246 -0.365032
v -2.730410 8.389981 -0.320899
v -2.762975 8.389981 -0.556315
v -2.559816 8.510056 -0.584419
v -2.527250 8.510056 -0.349002
v -2.846287 8.589791 -0.304869
v -2.878853 8.589791 -0.540286
v -2.675694 8.709867 -0.568389
v -2.643128 8.709867 -0.332973
v -2.962166 8.789602 -0.288839
v -2.994731 8.789602 -0.524256
v -2.791572 8.909678 -0.552360
v -2.759006 8.909678 -0.316943
v -3.078043 8.989413 -0.272810
v -3.110609 8.989413 -0.508226
v -2.907450 9.109488 -0.536330
v -2.874884 9.109488 -0.300913
v -0.775997 3.042175 -0.143724
v -0.345341 3.042175 -0.066310
v -0.412674 3.258083 0.308266
v -0.843330 3.258083 0.230852
v -0.727231 3.365925 -0.297226
v -0.337595 3.365925 -0.227186
v -0.398514 3.561267 0.111712
v -0.788150 3.561267 0.041672
v -0.684757 3.647900 -0.430921
v -0.330849 3.647900 -0.367304
v -0.386182 3.825330 -0.059481
v -0.740091 3.825330 -0.123098
v -0.645915 3.905766 -0.553186
v -0.324679 3.905766 -0.495441
v -0.374904 4.066817 -0.216037
v -0.696140 4.066817 -0.273781
v -0.609568 4.147071 -0.667598
v -0.318906 4.147071 -0.615350
v -0.364351 4.292794 -0.362538
v -0.655013 4.292794 -0.414786
v -0.575092 4.375949 -0.776118
v -0.313430 4.375949 -0.729083
v -0.616003 4.507133 -0.548530
v -0.382401 0.840339 0.673294
v -0.772489 0.840339 -0.053069
v -0.071527 1.056468 -0.429516
v 0.318562 1.056468 0.296847
v -0.514185 1.502222 0.675382
v -0.847013 1.502222 0.055640
v -0.248943 1.686627 -0.265550
v 0.083886 1.686627 0.354193
v -0.629684 2.082317 0.677213
v -0.912329 2.082317 0.150915
v -0.404436 2.238917 -0.121845
v -0.121792 2.238917 0.404452
vn 0.2841 0.9022 0.3247
vn -0.5847 -0.0000 0.8113
vn 0.2503 -0.9512 0.1804
vn 0.5847 -0.0000 -0.8113
vn -0.2503 0.9512 -0.1804
vn -0.3495 0.7212 0.5980
vn 0.7266 -0.5032 0.4679
vn -0.1958 0.8629 0.4658
vn -0.9882 -0.0697 0.1367
vn -0.5661 0.0419 0.8233
vn 0.3642 -0.9176 0.1592
vn 0.8309 -0.0000 0.5564
vn 0.2768 0.8675 -0.4134
vn -0.8309 -0.0000 -0.5564
vn -0.6682 -0.4661 0.5799
vn -0.2768 -0.8675 0.4134
vn -0.5007 0.5090 -0.7001
vn 0.5134 -0.2203 0.8294
vn 0.8392 0.3240 -0.4369
vn -0.1845 -0.1120 -0.9764
vn 0.9593 0.1163 -0.2572
vn -0.4826 0.4975 0.7208
vn 0.0837 0.5305 -0.8435
vn -0.4921 0.2208 0.8421
vn -0.3171 0.8764 -0.3624
vn 0.7717 0.3086 0.5562
vn -0.8744 0.3354 -0.3505
vn 0.7693 0.2067 0.6045
vn 0.2309 -0.9650 -0.1240
vn -0.9186 0.0396 -0.3933
vn -0.7545 -0.3778 -0.5367
vn 0.1050 -0.6626 -0.7416
vn 0.9033 0.4016 0.1505
vn -0.9302 -0.2686 -0.2501
vn -0.1947 0.1641 0.9670
vn 0.8845 -0.1843 -0.4286
vn 0.3474 0.0103 -0.9377
vn -0.5232 -0.7770 0.3501
vn 0.5477 -0.1873 0.8154
vn 0.2125 0.9768 -0.0245
vn -0.9096 0.4116 0.0567
vn 0.1157 0.7865 0.6067
vn -0.5771 -0.4816 -0.6596
vn 0.7526 -0.0000 -0.6585
vn 0.5771 0.4816 0.6596
vn -0.7526 -0.0000 0.6585
vn -0.1114 -0.9753 0.1906
vn -0.8634 -0.0000 -0.5046
vn 0.1114 0.9753 -0.1906
vn 0.8634 -0.0000 0.5046
vn 0.0524 -0.8477 -0.5279
vn 0.9951 -0.0000 0.0988
vn -0.0007 0.8713 0.4907
vn -0.9997 0.0240 0.0079
vn -0.0524 0.8477 0.5279
vn -0.9951 -0.0000 -0.0988
vn -0.8548 -0.5052 0.1183
vn -0.2021 0.0182 -0.9792
vn 0.8788 0.4334 -0.1999
vn 0.1370 -0.0000 0.9906
vn -0.1370 -0.0000 -0.9906
vn 0.8548 0.5052 -0.1183
vn 0.1587 -0.4424 -0.8827
vn 0.9876 0.0502 0.1486
vn -0.1486 0.5428 0.8266
vn -0.9775 0.0502 -0.2047
vn 0.9907 -0.0096 0.1355
vn -0.1838 0.5122 0.8390
vn -0.8675 -0.1742 0.4659
vn -0.4920 0.0869 -0.8662
vn 0.8259 0.3480 -0.4436
vn 0.4504 0.0869 0.8886
s 0
f 72//1 84//1 71//1
f 58//2 59//2 55//2 54//2
f 57//3 58//3 54//3 53//3
f 56//4 53//4 49//4 52//4
f 55//5 56//5 52//5 51//5
f 54//2 55//2 51//2 50//2
f 53//3 54//3 50//3 49//3
f 83//6 84//6 72//6
f 52//4 49//4 45//4 48//4
f 51//5 52//5 48//5 47//5
f 50//2 51//2 47//2 46//2
f 49//3 50//3 46//3 45//3
f 281//7 33//7 34//7
f 48//4 45//4 41//4 44//4
f 47//5 48//5 44//5 43//5
f 46//2 47//2 43//2 42//2
f 45//3 46//3 42//3 41//3
f 263//8 27//8 28//8 262//8
f 44//4 41//4 37//4 40//4
f 43//5 44//5 40//5 39//5
f 173//9 174//9 282//9
f 42//2 43//2 39//2 38//2
f 41//3 42//3 38//3 37//3
f 40//4 37//4 33//4 36//4
f 39//5 40//5 36//5 35//5
f 38//10 39//10 35//10 34//10
f 37//11 38//11 34//11 33//11
f 24//12 21//12 29//12 32//12
f 23//13 24//13 32//13 31//13
f 22//14 23//14 31//14 30//14
f 292//15 291//15 25//15 26//15
f 21//16 22//16 30//16 29//16
f 120//17 117//17 174//17
f 291//18 294//18 25//18
f 119//19 36//19 118//19
f 32//12 29//12 25//12 28//12
f 31//13 32//13 28//13 27//13
f 30//14 31//14 27//14 26//14
f 261//20 293//20 292//20 260//20
f 261//21 262//21 294//21 293//21
f 29//16 30//16 26//16 25//16
f 24//22 23//22 22//22 21//22
f 20//23 19//23 18//23 17//23
f 16//24 15//24 14//24 13//24
f 12//25 11//25 10//25 9//25
f 8//26 7//26 6//26 5//26
f 263//27 260//27 27//27
f 262//28 28//28 25//28 294//28
f 1//29 2//29 3//29 4//29
f 260//30 292//30 26//30 27//30
f 257//31 82//31 69//31 70//31
f 117//32 118//32 281//32 280//32
f 259//33 258//33 71//33 84//33
f 174//34 117//34 280//34 282//34
f 35//35 173//35 282//35 34//35
f 118//36 36//36 33//36 281//36
f 257//37 70//37 71//37 258//37
f 82//38 257//38 256//38 81//38
f 81//39 256//39 259//39 84//39
f 119//40 120//40 175//40 36//40
f 82//41 83//41 72//41 69//41
f 175//42 173//42 35//42 36//42
f 59//5 60//5 56//5 55//5
f 60//4 57//4 53//4 56//4
f 61//3 62//3 58//3 57//3
f 62//2 63//2 59//2 58//2
f 63//5 64//5 60//5 59//5
f 64//4 61//4 57//4 60//4
f 65//3 66//3 62//3 61//3
f 66//2 67//2 63//2 62//2
f 67//5 68//5 64//5 63//5
f 68//4 65//4 61//4 64//4
f 5//3 6//3 66//3 65//3
f 6//2 7//2 67//2 66//2
f 7//5 8//5 68//5 67//5
f 8//4 5//4 65//4 68//4
f 73//43 74//43 70//43 69//43
f 74//44 75//44 71//44 70//44
f 75//45 76//45 72//45 71//45
f 76//46 73//46 69//46 72//46
f 77//43 78//43 74//43 73//43
f 78//44 79//44 75//44 74//44
f 79//45 80//45 76//45 75//45
f 80//46 77//46 73//46 76//46
f 9//43 10//43 78//43 77//43
f 10//44 11//44 79//44 78//44
f 11//45 12//45 80//45 79//45
f 12//46 9//46 77//46 80//46
f 85//47 86//47 82//47 81//47
f 86//48 87//48 83//48 82//48
f 87//49 88//49 84//49 83//49
f 88//50 85//50 81//50 84//50
f 89//47 90//47 86//47 85//47
f 90//48 91//48 87//48 86//48
f 91//49 92//49 88//49 87//49
f 92//50 89//50 85//50 88//50
f 93//47 94//47 90//47 89//47
f 94//48 95//48 91//48 90//48
f 95//49 96//49 92//49 91//49
f 96//50 93//50 89//50 92//50
f 97//47 98//47 94//47 93//47
f 98//48 99//48 95//48 94//48
f 99//49 100//49 96//49 95//49
f 100//50 97//50 93//50 96//50
f 101//47 102//47 98//47 97//47
f 102//48 103//48 99//48 98//48
f 103//49 104//49 100//49 99//49
f 104//50 101//50 97//50 100//50
f 105//47 106//47 102//47 101//47
f 106//48 107//48 103//48 102//48
f 107//49 108//49 104//49 103//49
f 108//50 105//50 101//50 104//50
f 109//47 110//47 106//47 105//47
f 110//48 111//48 107//48 106//48
f 111//49 112//49 108//49 107//49
f 112//50 109//50 105//50 108//50
f 113//47 114//47 110//47 109//47
f 114//48 115//48 111//48 110//48
f 115//49 116//49 112//49 111//49
f 116//50 113//50 109//50 112//50
f 13//47 14//47 114//47 113//47
f 14//48 15//48 115//48 114//48
f 15//49 16//49 116//49 115//49
f 16//50 13//50 113//50 116//50
f 121//51 122//51 118//51 117//51
f 122//52 123//52 119//52 118//52
f 123//53 124//53 120//53 119//53
f 124//54 121//54 117//54 120//54
f 125//51 126//51 122//51 121//51
f 126//52 127//52 123//52 122//52
f 127//55 128//55 124//55 123//55
f 128//56 125//56 121//56 124//56
f 129//51 130//51 126//51 125//51
f 130//52 131//52 127//52 126//52
f 131//55 132//55 128//55 127//55
f 132//56 129//56 125//56 128//56
f 133//51 134//51 130//51 129//51
f 134//52 135//52 131//52 130//52
f 135//55 136//55 132//55 131//55
f 136//56 133//56 129//56 132//56
f 137//51 138//51 134//51 133//51
f 138//52 139//52 135//52 134//52
f 139//55 140//55 136//55 135//55
f 140//56 137//56 133//56 136//56
f 141//51 142//51 138//51 137//51
f 142//52 143//52 139//52 138//52
f 143//55 144//55 140//55 139//55
f 144//56 141//56 137//56 140//56
f 145//51 146//51 142//51 141//51
f 146//52 147//52 143//52 142//52
f 147//55 148//55 144//55 143//55
f 148//56 145//56 141//56 144//56
f 149//51 150//51 146//51 145//51
f 150//52 151//52 147//52 146//52
f 151//55 152//55 148//55 147//55
f 152//56 149//56 145//56 148//56
f 153//51 154//51 150//51 149//51
f 154//52 155//52 151//52 150//52
f 155//55 156//55 152//55 151//55
f 156//56 153//56 149//56 152//56
f 157//51 158//51 154//51 153//51
f 158//52 159//52 155//52 154//52
f 159//55 160//55 156//55 155//55
f 160//56 157//56 153//56 156//56
f 161//51 162//51 158//51 157//51
f 162//52 163//52 159//52 158//52
f 163//55 164//55 160//55 159//55
f 164//56 161//56 157//56 160//56
f 165//51 166//51 162//51 161//51
f 166//52 167//52 163//52 162//52
f 167//55 168//55 164//55 163//55
f 168//56 165//56 161//56 164//56
f 169//51 170//51 166//51 165//51
f 170//52 171//52 167//52 166//52
f 171//55 172//55 168//55 167//55
f 172//56 169//56 165//56 168//56
f 17//51 18//51 170//51 169//51
f 18//52 19//52 171//52 170//52
f 19//55 20//55 172//55 171//55
f 20//56 17//56 169//56 172//56
f 176//57 177//57 174//57 173//57
f 177//58 178//58 120//58 174//58
f 178//59 179//59 175//59 120//59
f 179//60 176//60 173//60 175//60
f 180//57 181//57 177//57 176//57
f 181//61 182//61 178//61 177//61
f 182//62 183//62 179//62 178//62
f 183//60 180//60 176//60 179//60
f 184//57 185//57 181//57 180//57
f 185//61 186//61 182//61 181//61
f 186//62 187//62 183//62 182//62
f 187//60 184//60 180//60 183//60
f 188//57 189//57 185//57 184//57
f 189//61 190//61 186//61 185//61
f 190//62 191//62 187//62 186//62
f 191//60 188//60 184//60 187//60
f 192//57 193//57 189//57 188//57
f 193//61 194//61 190//61 189//61
f 194//62 195//62 191//62 190//62
f 195//60 192//60 188//60 191//60
f 196//57 197//57 193//57 192//57
f 197//61 198//61 194//61 193//61
f 198//62 199//62 195//62 194//62
f 199//60 196//60 192//60 195//60
f 200//57 201//57 197//57 196//57
f 201//61 202//61 198//61 197//61
f 202//62 203//62 199//62 198//62
f 203//60 200//60 196//60 199//60
f 204//57 205//57 201//57 200//57
f 205//61 206//61 202//61 201//61
f 206//62 207//62 203//62 202//62
f 207//60 204//60 200//60 203//60
f 208//57 209//57 205//57 204//57
f 209//61 210//61 206//61 205//61
f 210//62 211//62 207//62 206//62
f 211//60 208//60 204//60 207//60
f 212//57 213//57 209//57 208//57
f 213//61 214//61 210//61 209//61
f 214//62 215//62 211//62 210//62
f 215//60 212//60 208//60 211//60
f 216//57 217//57 213//57 212//57
f 217//61 218//61 214//61 213//61
f 218//62 219//62 215//62 214//62
f 219//60 216//60 212//60 215//60
f 220//57 221//57 217//57 216//57
f 221//61 222//61 218//61 217//61
f 222//62 223//62 219//62 218//62
f 223//60 220//60 216//60 219//60
f 224//57 225//57 221//57 220//57
f 225//61 226//61 222//61 221//61
f 226//62 227//62 223//62 222//62
f 227//60 224//60 220//60 223//60
f 228//57 229//57 225//57 224//57
f 229//61 230//61 226//61 225//61
f 230//62 231//62 227//62 226//62
f 231//60 228//60 224//60 227//60
f 232//57 233//57 229//57 228//57
f 233//61 234//61 230//61 229//61
f 234//62 235//62 231//62 230//62
f 235//60 232//60 228//60 231//60
f 236//57 237//57 233//57 232//57
f 237//61 238//61 234//61 233//61
f 238//62 239//62 235//62 234//62
f 239//60 236//60 232//60 235//60
f 240//57 241//57 237//57 236//57
f 241//61 242//61 238//61 237//61
f 242//62 243//62 239//62 238//62
f 243//60 240//60 236//60 239//60
f 244//57 245//57 241//57 240//57
f 245//61 246//61 242//61 241//61
f 246//62 247//62 243//62 242//62
f 247//60 244//60 240//60 243//60
f 248//57 249//57 245//57 244//57
f 249//61 250//61 246//61 245//61
f 250//62 251//62 247//62 246//62
f 251//60 248//60 244//60 247//60
f 252//57 253//57 249//57 248//57
f 253//61 254//61 250//61 249//61
f 254//62 255//62 251//62 250//62
f 255//60 252//60 248//60 251//60
f 256//57 257//57 253//57 252//57
f 257//61 258//61 254//61 253//61
f 258//62 259//62 255//62 254//62
f 259//60 256//60 252//60 255//60
f 264//63 265//63 261//63 260//63
f 265//64 266//64 262//64 261//64
f 266//65 267//65 263//65 262//65
f 267//66 264//66 260//66 263//66
f 268//63 269//63 265//63 264//63
f 269//64 270//64 266//64 265//64
f 270//65 271//65 267//65 266//65
f 271//66 268//66 264//66 267//66
f 272//63 273//63 269//63 268//63
f 273//64 274//64 270//64 269//64
f 274//65 275//65 271//65 270//65
f 275//66 272//66 268//66 271//66
f 276//63 277//63 273//63 272//63
f 277//64 278//64 274//64 273//64
f 278//65 279//65 275//65 274//65
f 279//66 276//66 272//66 275//66
f 280//63 281//63 277//63 276//63
f 281//67 34//67 278//67 277//67
f 34//68 282//68 279//68 278//68
f 282//66 280//66 276//66 279//66
f 283//69 284//69 2//69 1//69
f 284//70 285//70 3//70 2//70
f 285//71 286//71 4//71 3//71
f 286//72 283//72 1//72 4//72
f 287//69 288//69 284//69 283//69
f 288//70 289//70 285//70 284//70
f 289//71 290//71 286//71 285//71
f 290//72 287//72 283//72 286//72
f 291//69 292//69 288//69 287//69
f 292//70 293//70 289//70 288//70
f 293//71 294//71 290//71 289//71
f 294//72 291//72 287//72 290//72
