# Blender 4.1.1
# www.blender.org
mtllib tree3.mtl
o Cube.002
v -0.515516 -0.188882 0.883132
v -0.865029 -0.188882 -0.545346
v 0.515516 0.188882 -0.883132
v 0.865029 0.188882 0.545346
v -1.133412 6.440237 0.551503
v -0.960850 6.440237 0.490509
v -0.922322 6.582125 0.599510
v -1.094884 6.582125 0.660504
v -1.937475 6.015018 0.439227
v -1.839836 6.015018 0.284423
v -1.844814 6.197948 0.281282
v -1.942454 6.197948 0.436087
v 2.498826 7.136353 0.157063
v 2.676369 7.136353 0.382158
v 2.578504 7.394526 0.459348
v 2.400962 7.394526 0.234253
v 0.271124 9.618593 -0.000937
v 0.006984 9.618593 -0.122330
v 0.115727 9.747799 -0.358947
v 0.379868 9.747799 -0.237554
v -1.286398 9.523685 -2.182560
v -1.070086 9.523685 -2.376766
v -1.004220 9.797155 -2.303402
v -1.220532 9.797155 -2.109197
v -0.928074 5.807574 -0.540070
v -0.973795 5.807574 -0.717291
v -0.808148 5.872633 -0.760026
v -0.762426 5.872633 -0.582805
v -0.920394 4.856698 -1.644376
v -0.761860 4.856698 -1.735835
v -0.715834 5.014858 -1.656055
v -0.874369 5.014858 -1.564595
v 0.405498 9.105623 -0.141297
v 0.025990 9.105623 -0.315710
v 0.182229 9.291262 -0.655672
v 0.561736 9.291262 -0.481259
v 0.334511 9.376614 -0.067148
v 0.015949 9.376614 -0.213552
v 0.147097 9.532440 -0.498919
v 0.465659 9.532440 -0.352515
v 0.680170 6.056788 1.469126
v 1.023034 5.985777 1.800622
v 0.863840 6.405737 1.926185
v 0.575039 6.405737 1.560031
v 1.045451 6.188704 1.209174
v 1.314630 6.188704 1.550449
v 1.166253 6.580130 1.667481
v 0.897074 6.580130 1.326205
v 1.322776 6.369529 1.008416
v 1.574470 6.369529 1.327523
v 1.435732 6.735528 1.436951
v 1.184038 6.735528 1.117845
v 1.580155 6.537349 0.822097
v 1.815621 6.537349 1.120629
v 1.685827 6.879750 1.223003
v 1.450362 6.879750 0.924470
v 1.823651 6.696115 0.645828
v 2.043764 6.696115 0.924896
v 1.922433 7.016192 1.020595
v 1.702320 7.016192 0.741527
v 2.056626 6.848024 0.477175
v 2.262050 6.848024 0.737620
v 2.148816 7.146740 0.826932
v 1.943392 7.146740 0.566488
v 2.281200 6.994454 0.314604
v 2.472465 6.994454 0.557096
v 2.367036 7.272581 0.640252
v 2.175772 7.272581 0.397760
v -0.805214 3.163237 -0.346009
v -0.340600 3.163237 -0.134561
v -0.512666 3.485151 0.169416
v -0.972201 3.476385 0.020911
v -0.693861 3.509306 -0.590684
v -0.229247 3.509306 -0.379236
v -0.396234 3.822454 -0.012316
v -0.860848 3.822454 -0.223764
v -0.582508 3.855375 -0.835360
v -0.117894 3.855375 -0.623912
v -0.284881 4.168523 -0.256992
v -0.749495 4.168523 -0.468440
v -1.162178 6.288178 0.639676
v -0.859588 6.255075 0.592512
v -0.795176 6.492289 0.774743
v -1.083670 6.492289 0.876715
v -1.370061 5.938706 0.915190
v -1.165861 5.938706 0.591436
v -1.380474 6.321280 0.908623
v -1.588186 5.968042 0.732221
v -1.424949 5.968042 0.473414
v -1.433273 6.273869 0.468164
v -1.596509 6.273869 0.726971
v -1.772368 5.992813 0.577724
v -1.643721 5.992813 0.373758
v -1.650281 6.233836 0.369620
v -1.778927 6.233836 0.573586
v -0.112043 5.723183 1.844068
v 0.265798 5.723183 1.511238
v 0.180970 6.183444 1.545300
v -0.076094 6.239088 1.981703
v -0.440165 5.785975 1.685139
v -0.117772 5.785975 1.289361
v -0.066171 6.292085 1.331394
v -0.388564 6.292085 1.727172
v -0.752634 5.838972 1.430608
v -0.430241 5.838972 1.034830
v -0.378641 6.345082 1.076863
v -0.701033 6.345082 1.472640
v 0.626775 6.466047 1.886098
v 0.116309 6.466047 1.886990
v 0.115079 6.491688 1.182731
v 0.625545 6.491688 1.181840
v 0.626213 6.829935 1.564155
v 0.115747 6.829935 1.565046
v 0.114517 6.855576 0.860788
v 0.624983 6.855576 0.859896
v 0.625651 7.193823 1.242211
v 0.115185 7.193823 1.243103
v 0.113954 7.219464 0.538845
v 0.624421 7.219464 0.537953
v 0.625089 7.557711 0.920268
v 0.114622 7.557711 0.921160
v 0.113392 7.583352 0.216901
v 0.623858 7.583352 0.216010
v 0.624526 7.921599 0.598325
v 0.114060 7.921599 0.599216
v 0.112830 7.947240 -0.105042
v 0.623296 7.947240 -0.105934
v 0.623964 8.285487 0.276382
v 0.113498 8.285487 0.277273
v 0.112267 8.311128 -0.426985
v 0.622734 8.311128 -0.427877
v 0.623402 8.649375 -0.045562
v 0.112935 8.649375 -0.044670
v -0.299591 3.193389 0.456714
v -0.732881 3.193389 0.726597
v -0.951035 3.493917 0.376356
v -0.157150 3.563301 0.685399
v -0.590440 3.563301 0.955282
v -0.808594 3.863829 0.605041
v -0.375304 3.863829 0.335158
v -0.014710 3.933213 0.914084
v -0.448000 3.933213 1.183967
v -0.666154 4.233741 0.833726
v -0.232864 4.233741 0.563843
v 0.127731 4.303125 1.142769
v -0.305559 4.303125 1.412651
v -0.523713 4.603652 1.062411
v -0.090423 4.603652 0.792528
v 0.270171 4.673037 1.371454
v -0.163119 4.673037 1.641336
v -0.381273 4.973564 1.291096
v 0.052017 4.973564 1.021213
v 0.412612 5.042948 1.600139
v -0.020678 5.042948 1.870021
v -0.238832 5.343476 1.519781
v 0.194458 5.343476 1.249898
v 0.555052 5.412860 1.828824
v 0.121762 5.412860 2.098706
v -0.685003 1.028506 0.730328
v -0.944818 1.028506 -0.331551
v 0.081429 1.309321 -0.582648
v 0.341244 1.309321 0.479231
v -0.785848 1.752850 0.639410
v -0.992293 1.752850 -0.204343
v -0.176853 1.975982 -0.403861
v 0.029592 1.975982 0.439892
v -0.870741 2.362623 0.562872
v -1.032258 2.362623 -0.097255
v -0.394282 2.537195 -0.253352
v -0.232765 2.537195 0.406775
v -0.185816 8.803762 -0.827935
v 0.158511 8.803762 -1.137072
v 0.263358 9.239075 -1.020290
v -0.080969 9.239075 -0.711153
v -0.406507 8.948124 -1.099567
v -0.087849 8.948124 -1.385658
v 0.009180 9.350983 -1.277583
v -0.309477 9.350983 -0.991492
v -0.603572 9.077029 -1.342121
v -0.307837 9.077029 -1.607632
v -0.217787 9.450910 -1.507331
v -0.513523 9.450910 -1.241820
v -0.786710 9.196824 -1.567531
v -0.512276 9.196824 -1.813918
v -0.428712 9.543775 -1.720841
v -0.703146 9.543775 -1.474455
v -0.960141 9.310271 -1.780995
v -0.705880 9.310271 -2.009271
v -0.628459 9.631719 -1.923036
v -0.882720 9.631719 -1.694760
v -1.126211 9.418902 -1.985398
v -0.891266 9.418902 -2.196331
v -0.819727 9.715928 -2.116648
v -1.054671 9.715928 -1.905715
v -0.636533 4.783483 -0.502866
v -0.684985 4.766100 -0.918906
v -0.373955 4.925928 -0.984462
v -0.273848 4.925928 -0.596435
v -0.724899 5.093884 -0.514142
v -0.808521 5.093884 -0.838274
v -0.505558 5.212873 -0.916436
v -0.421936 5.212873 -0.592304
v -0.799514 5.355983 -0.523664
v -0.869217 5.355983 -0.793844
v -0.616683 5.455167 -0.858995
v -0.546979 5.455167 -0.588815
v -0.866401 5.590939 -0.532200
v -0.923627 5.590939 -0.754015
v -0.716299 5.672368 -0.807503
v -0.659073 5.672368 -0.585688
v -0.729587 4.417944 -1.113770
v -0.398033 4.417944 -1.305045
v -0.301776 4.748717 -1.138195
v -0.802937 4.586610 -1.317744
v -0.537895 4.586610 -1.470649
v -0.460948 4.851027 -1.337270
v -0.725990 4.851027 -1.184365
v -0.864873 4.729029 -1.489979
v -0.655993 4.729029 -1.610483
v -0.595351 4.937416 -1.505367
v -0.804231 4.937416 -1.384863
v 0.180970 6.183444 1.545300
v 0.680170 6.056788 1.469126
v 0.626775 6.466047 1.886098
v 0.116309 6.466047 1.886990
v -0.684985 4.766100 -0.918906
v -0.301776 4.748717 -1.138195
v -0.398033 4.417944 -1.305045
v -0.729587 4.417944 -1.113770
vn -0.5931 0.0159 -0.8050
vn -0.3153 0.9158 0.2487
vn 0.6447 0.0159 0.7643
vn 0.3669 -0.8841 -0.2894
vn -0.9351 -0.3199 -0.1525
vn 0.9072 -0.0535 -0.4173
vn 0.8262 0.5214 -0.2132
vn -0.1379 0.1369 -0.9809
vn -0.3987 0.5029 -0.7669
vn 0.0322 0.1477 0.9885
vn -0.5904 0.0244 -0.8067
vn -0.2552 0.8931 0.3704
vn 0.6278 0.3598 -0.6902
vn 0.2313 -0.9229 -0.3079
vn -0.1561 0.9723 -0.1739
vn 0.0591 0.9899 -0.1285
vn 0.8808 0.1044 0.4618
vn 0.3499 0.5458 -0.7614
vn -0.9241 0.1044 -0.3677
vn -0.3932 -0.3371 0.8555
vn -0.9416 0.1453 0.3037
vn -0.9312 0.0380 0.3626
vn -0.4318 0.5032 -0.7485
vn -0.3442 0.9347 0.0888
vn -0.7929 -0.1049 0.6002
vn -0.0010 -0.8216 -0.5701
vn -0.4701 -0.7106 -0.5236
vn -0.9051 -0.3176 0.2826
vn -0.7528 0.4302 -0.4983
vn -0.6285 0.3392 -0.7000
vn -0.0161 0.3967 0.9178
vn -0.8363 0.0309 0.5474
vn -0.1856 0.8958 0.4039
vn 0.7071 0.4348 -0.5577
vn -0.8454 -0.0322 -0.5332
vn 0.4292 -0.2194 0.8761
vn 0.9866 0.0312 -0.1604
vn 0.2750 0.9367 -0.2169
vn 0.0015 0.5575 0.8302
vn -0.4149 0.4939 -0.7641
vn -0.0000 1.0000 -0.0000
vn 0.8429 0.5313 -0.0856
vn 0.3863 -0.1492 0.9102
vn 0.9871 0.1419 0.0745
vn -0.0032 0.9988 -0.0491
vn -0.9205 -0.3313 0.2073
vn 0.8529 -0.0030 -0.5221
vn -0.9842 -0.0035 0.1771
vn 0.0908 -0.2253 0.9700
vn 0.2495 -0.9664 -0.0610
vn -0.8716 0.0980 -0.4803
vn -0.6398 -0.0010 0.7686
vn -0.0964 -0.9928 -0.0705
vn 0.0662 -0.1034 -0.9924
vn 0.4550 -0.5000 -0.7369
vn 0.5909 -0.2164 -0.7772
vn -0.9867 0.1515 0.0597
vn -0.1817 0.2737 0.9445
vn 0.1504 0.9712 0.1846
vn 0.0194 -0.6445 -0.7644
vn 0.9649 0.2045 0.1646
vn -0.1817 0.3139 0.9319
vn -0.1188 0.1242 -0.9851
vn -0.2584 0.6317 -0.7309
vn 0.3987 -0.5029 0.7669
vn -0.4724 0.8577 0.2029
vn 0.3271 -0.6135 -0.7188
vn 0.8886 -0.0100 0.4586
vn -0.3017 0.5751 0.7605
vn -0.9102 -0.0000 -0.4142
vn 0.9102 -0.0000 0.4142
vn -0.3271 0.6135 0.7188
vn -0.2242 -0.5148 -0.8274
vn 0.8371 0.1717 -0.5194
vn 0.1324 0.9177 0.3745
vn -0.9701 0.2140 0.1141
vn -0.0875 -0.9946 -0.0552
vn 0.4797 0.0608 -0.8753
vn -0.0529 0.9935 -0.1006
vn -0.6430 -0.0044 0.7659
vn 0.4141 -0.0044 -0.9102
vn -0.1414 0.9859 -0.0892
vn -0.1150 -0.9872 -0.1106
vn 0.5818 0.0837 -0.8090
vn 0.2121 0.9737 0.0826
vn -0.5521 -0.0983 0.8279
vn -0.1011 -0.9915 -0.0823
vn 0.6316 -0.0000 -0.7753
vn 0.1011 0.9915 0.0823
vn -0.6316 -0.0000 0.7753
vn -0.1394 -0.6646 -0.7341
vn 0.9976 0.0695 0.0008
vn 0.0013 0.6626 0.7490
vn -0.9950 -0.1003 -0.0019
vn -0.0013 -0.6626 -0.7490
vn 1.0000 -0.0000 -0.0017
vn -1.0000 -0.0000 0.0017
vn 0.4274 -0.5887 0.6861
vn -0.8488 -0.0000 0.5287
vn -0.3998 0.5398 -0.7408
vn 0.8241 -0.0096 -0.5664
vn -0.4274 0.5887 -0.6861
vn 0.8488 -0.0000 -0.5287
vn -0.8402 -0.0925 0.5344
vn -0.4715 0.6124 -0.6346
vn 0.8376 0.1109 -0.5350
vn -0.9660 -0.1048 0.2364
vn -0.2733 0.1490 -0.9503
vn 0.8891 0.4028 -0.2175
vn 0.1964 0.1490 0.9691
vn -0.2550 -0.9243 -0.2840
vn 0.7147 0.0155 -0.6993
vn 0.1977 0.9552 0.2202
vn -0.7720 0.0155 0.6354
vn -0.9289 -0.3273 0.1734
vn -0.2761 0.1161 -0.9541
vn 0.8649 0.4496 -0.2231
vn 0.2131 0.0960 0.9723
vn -0.9356 -0.2576 0.2414
vn -0.2838 0.0960 -0.9541
vn -0.3099 -0.7844 -0.5372
vn 0.7966 0.0710 -0.6004
vn 0.1938 0.9360 0.2938
vn -0.9637 0.0507 0.2622
vn 0.1880 0.9265 0.3259
vn -0.9185 0.0710 0.3890
s 0
f 64//1 61//1 57//1 60//1
f 63//2 64//2 60//2 59//2
f 62//3 63//3 59//3 58//3
f 61//4 62//4 58//4 57//4
f 60//1 57//1 53//1 56//1
f 211//5 77//5 80//5
f 59//2 60//2 56//2 55//2
f 58//3 59//3 55//3 54//3
f 57//4 58//4 54//4 53//4
f 56//1 53//1 49//1 52//1
f 212//6 213//6 78//6
f 55//2 56//2 52//2 51//2
f 213//7 197//7 198//7
f 81//8 82//8 86//8
f 54//3 55//3 51//3 50//3
f 53//4 54//4 50//4 49//4
f 52//1 49//1 45//1 48//1
f 197//9 213//9 212//9
f 51//2 52//2 48//2 47//2
f 43//10 99//10 158//10
f 50//3 51//3 47//3 46//3
f 49//4 50//4 46//4 45//4
f 48//11 45//11 41//11 44//11
f 47//2 48//2 44//2 43//2
f 46//3 47//3 43//3 42//3
f 174//12 34//12 35//12
f 83//13 106//13 82//13
f 45//14 46//14 42//14 41//14
f 173//15 174//15 35//15
f 36//16 173//16 35//16
f 20//17 17//17 37//17 40//17
f 19//18 20//18 40//18 39//18
f 18//19 19//19 39//19 38//19
f 17//20 18//20 38//20 37//20
f 40//17 37//17 33//17 36//17
f 39//18 40//18 36//18 35//18
f 38//19 39//19 35//19 34//19
f 171//21 34//21 174//21
f 37//20 38//20 34//20 33//20
f 171//22 133//22 34//22
f 32//23 31//23 30//23 29//23
f 28//24 27//24 26//24 25//24
f 99//25 96//25 158//25
f 130//26 172//26 131//26
f 130//27 171//27 172//27
f 130//28 133//28 171//28
f 109//29 98//29 99//29
f 24//30 23//30 22//30 21//30
f 43//31 109//31 99//31
f 136//32 167//32 135//32
f 20//33 19//33 18//33 17//33
f 16//34 15//34 14//34 13//34
f 12//35 11//35 10//35 9//35
f 42//36 43//36 158//36 157//36
f 169//37 70//37 134//37 170//37
f 44//38 108//38 43//38
f 108//39 109//39 43//39
f 197//40 227//40 226//40 196//40
f 196//41 226//41 229//41 211//41
f 211//41 229//41 228//41 212//41
f 70//42 71//42 134//42
f 170//43 134//43 135//43 167//43
f 213//44 198//44 79//44 78//44
f 72//45 136//45 71//45
f 44//46 223//46 224//46 108//46
f 108//41 224//41 225//41 109//41
f 131//47 172//47 173//47 36//47
f 168//48 167//48 136//48 72//48
f 109//41 225//41 222//41 98//41
f 98//49 222//49 223//49 44//49
f 1//50 2//50 3//50 4//50
f 168//51 72//51 69//51
f 104//52 107//52 87//52 85//52
f 104//53 85//53 86//53 105//53
f 169//54 168//54 69//54 70//54
f 41//55 42//55 157//55 97//55
f 106//56 105//56 86//56 82//56
f 196//57 211//57 80//57 195//57
f 195//58 80//58 79//58 198//58
f 106//59 83//59 84//59 107//59
f 212//60 78//60 77//60 211//60
f 132//61 131//61 36//61 33//61
f 133//62 132//62 33//62 34//62
f 44//63 41//63 97//63 98//63
f 8//64 7//64 6//64 5//64
f 212//65 228//65 227//65 197//65
f 84//66 81//66 87//66 107//66
f 65//4 66//4 62//4 61//4
f 66//3 67//3 63//3 62//3
f 67//2 68//2 64//2 63//2
f 68//1 65//1 61//1 64//1
f 13//4 14//4 66//4 65//4
f 14//3 15//3 67//3 66//3
f 15//2 16//2 68//2 67//2
f 16//1 13//1 65//1 68//1
f 73//67 74//67 70//67 69//67
f 74//68 75//68 71//68 70//68
f 75//69 76//69 72//69 71//69
f 76//70 73//70 69//70 72//70
f 77//67 78//67 74//67 73//67
f 78//71 79//71 75//71 74//71
f 79//72 80//72 76//72 75//72
f 80//70 77//70 73//70 76//70
f 5//73 6//73 82//73 81//73
f 6//74 7//74 83//74 82//74
f 7//75 8//75 84//75 83//75
f 8//76 5//76 81//76 84//76
f 88//77 89//77 86//77 85//77
f 89//78 90//78 81//78 86//78
f 90//79 91//79 87//79 81//79
f 91//80 88//80 85//80 87//80
f 92//77 93//77 89//77 88//77
f 93//81 94//81 90//81 89//81
f 94//82 95//82 91//82 90//82
f 95//80 92//80 88//80 91//80
f 9//77 10//77 93//77 92//77
f 10//81 11//81 94//81 93//81
f 11//82 12//82 95//82 94//82
f 12//80 9//80 92//80 95//80
f 100//83 101//83 97//83 96//83
f 101//84 102//84 98//84 97//84
f 102//85 103//85 99//85 98//85
f 103//86 100//86 96//86 99//86
f 104//87 105//87 101//87 100//87
f 105//88 106//88 102//88 101//88
f 106//89 107//89 103//89 102//89
f 107//90 104//90 100//90 103//90
f 110//91 111//91 223//91 222//91
f 111//92 112//92 224//92 223//92
f 112//93 113//93 225//93 224//93
f 113//94 110//94 222//94 225//94
f 114//95 115//95 111//95 110//95
f 115//96 116//96 112//96 111//96
f 116//93 117//93 113//93 112//93
f 117//97 114//97 110//97 113//97
f 118//95 119//95 115//95 114//95
f 119//96 120//96 116//96 115//96
f 120//93 121//93 117//93 116//93
f 121//97 118//97 114//97 117//97
f 122//95 123//95 119//95 118//95
f 123//96 124//96 120//96 119//96
f 124//93 125//93 121//93 120//93
f 125//97 122//97 118//97 121//97
f 126//95 127//95 123//95 122//95
f 127//96 128//96 124//96 123//96
f 128//93 129//93 125//93 124//93
f 129//97 126//97 122//97 125//97
f 130//95 131//95 127//95 126//95
f 131//96 132//96 128//96 127//96
f 132//93 133//93 129//93 128//93
f 133//97 130//97 126//97 129//97
f 137//98 138//98 135//98 134//98
f 138//99 139//99 136//99 135//99
f 139//100 140//100 71//100 136//100
f 140//101 137//101 134//101 71//101
f 141//98 142//98 138//98 137//98
f 142//99 143//99 139//99 138//99
f 143//102 144//102 140//102 139//102
f 144//103 141//103 137//103 140//103
f 145//98 146//98 142//98 141//98
f 146//99 147//99 143//99 142//99
f 147//102 148//102 144//102 143//102
f 148//103 145//103 141//103 144//103
f 149//98 150//98 146//98 145//98
f 150//99 151//99 147//99 146//99
f 151//102 152//102 148//102 147//102
f 152//103 149//103 145//103 148//103
f 153//98 154//98 150//98 149//98
f 154//99 155//99 151//99 150//99
f 155//102 156//102 152//102 151//102
f 156//103 153//103 149//103 152//103
f 157//98 158//98 154//98 153//98
f 158//104 96//104 155//104 154//104
f 96//105 97//105 156//105 155//105
f 97//106 157//106 153//106 156//106
f 159//107 160//107 2//107 1//107
f 160//108 161//108 3//108 2//108
f 161//109 162//109 4//109 3//109
f 162//110 159//110 1//110 4//110
f 163//107 164//107 160//107 159//107
f 164//108 165//108 161//108 160//108
f 165//109 166//109 162//109 161//109
f 166//110 163//110 159//110 162//110
f 167//107 168//107 164//107 163//107
f 168//108 169//108 165//108 164//108
f 169//109 170//109 166//109 165//109
f 170//110 167//110 163//110 166//110
f 175//111 176//111 172//111 171//111
f 176//112 177//112 173//112 172//112
f 177//113 178//113 174//113 173//113
f 178//114 175//114 171//114 174//114
f 179//111 180//111 176//111 175//111
f 180//112 181//112 177//112 176//112
f 181//113 182//113 178//113 177//113
f 182//114 179//114 175//114 178//114
f 183//111 184//111 180//111 179//111
f 184//112 185//112 181//112 180//112
f 185//113 186//113 182//113 181//113
f 186//114 183//114 179//114 182//114
f 187//111 188//111 184//111 183//111
f 188//112 189//112 185//112 184//112
f 189//113 190//113 186//113 185//113
f 190//114 187//114 183//114 186//114
f 191//111 192//111 188//111 187//111
f 192//112 193//112 189//112 188//112
f 193//113 194//113 190//113 189//113
f 194//114 191//114 187//114 190//114
f 21//111 22//111 192//111 191//111
f 22//112 23//112 193//112 192//112
f 23//113 24//113 194//113 193//113
f 24//114 21//114 191//114 194//114
f 199//115 200//115 196//115 195//115
f 200//116 201//116 197//116 196//116
f 201//117 202//117 198//117 197//117
f 202//118 199//118 195//118 198//118
f 203//119 204//119 200//119 199//119
f 204//120 205//120 201//120 200//120
f 205//117 206//117 202//117 201//117
f 206//118 203//118 199//118 202//118
f 207//119 208//119 204//119 203//119
f 208//120 209//120 205//120 204//120
f 209//117 210//117 206//117 205//117
f 210//118 207//118 203//118 206//118
f 25//119 26//119 208//119 207//119
f 26//120 27//120 209//120 208//120
f 27//117 28//117 210//117 209//117
f 28//118 25//118 207//118 210//118
f 214//121 215//121 228//121 229//121
f 215//122 216//122 227//122 228//122
f 216//123 217//123 226//123 227//123
f 217//124 214//124 229//124 226//124
f 218//121 219//121 215//121 214//121
f 219//122 220//122 216//122 215//122
f 220//125 221//125 217//125 216//125
f 221//126 218//126 214//126 217//126
f 29//121 30//121 219//121 218//121
f 30//122 31//122 220//122 219//122
f 31//125 32//125 221//125 220//125
f 32//126 29//126 218//126 221//126
